<?xml version="1.0" encoding="utf-8"?>
<!-- Generator: Adobe Illustrator 26.0.2, SVG Export Plug-In . SVG Version: 6.00 Build 0)  -->
<svg version="1.1" xmlns="http://www.w3.org/2000/svg" xmlns:xlink="http://www.w3.org/1999/xlink" x="0px" y="0px"
	 viewBox="0 0 288 288" style="enable-background:new 0 0 288 288;" xml:space="preserve">
<style type="text/css">
	.st0{fill:#D6D6D6;}
	.st1{opacity:0.33;}
	.st2{fill:#6A8AAF;stroke:#6A8AAF;stroke-miterlimit:10;}
	.st3{opacity:0.42;}
	.st4{display:none;fill:none;stroke:#6A8AAF;stroke-miterlimit:10;}
	.st5{fill:#486290;stroke:#486290;stroke-miterlimit:10;}
	.st6{fill:none;stroke:#486290;stroke-miterlimit:10;}
	.st7{fill:none;}
	.st8{font-family:'SourceSansPro-Bold';}
	.st9{font-size:10px;}
	.st10{font-size:9px;}
	.st11{font-size:8.5px;}
</style>
<g id="Layer_2">
	<path class="st0" d="M267.98,288H20.02C8.96,288,0,279.04,0,267.98V20.02C0,8.96,8.96,0,20.02,0h247.97
		C279.04,0,288,8.96,288,20.02v247.97C288,279.04,279.04,288,267.98,288z"/>
</g>
<g id="Layer_3">
	<g class="st1">
		<path class="st2" d="M160.03,274.6c0-0.84-0.69-1.53-1.55-1.53c-0.86,0-1.55,0.68-1.55,1.53c0,0.84,0.69,1.53,1.55,1.53
			C159.34,276.12,160.03,275.44,160.03,274.6z"/>
		<path class="st2" d="M63.33,259.06c0-1.26-1.04-2.28-2.32-2.28c-1.28,0-2.32,1.02-2.32,2.28c0,1.26,1.04,2.28,2.32,2.28
			C62.29,261.34,63.33,260.32,63.33,259.06z"/>
		<path class="st2" d="M18.48,216.36c0-0.96-0.79-1.74-1.77-1.74c-0.98,0-1.77,0.78-1.77,1.74c0,0.96,0.79,1.74,1.77,1.74
			C17.68,218.11,18.48,217.32,18.48,216.36z"/>
		<path class="st2" d="M107.73,176.27c0-1.41-1.16-2.55-2.59-2.55c-1.43,0-2.59,1.14-2.59,2.55c0,1.41,1.16,2.55,2.59,2.55
			C106.57,178.82,107.73,177.68,107.73,176.27z"/>
		<path class="st2" d="M97,141.31c0-0.34-0.28-0.61-0.62-0.61c-0.34,0-0.62,0.28-0.62,0.61c0,0.34,0.28,0.61,0.62,0.61
			C96.72,141.92,97,141.65,97,141.31z"/>
		<path class="st2" d="M13.22,124.77c0-1.15-0.94-2.08-2.11-2.08c-1.17,0-2.11,0.93-2.11,2.08c0,1.15,0.95,2.08,2.11,2.08
			C12.27,126.85,13.22,125.92,13.22,124.77z"/>
		<path class="st2" d="M122.78,109.1c0-1.18-0.97-2.13-2.16-2.13c-1.19,0-2.16,0.95-2.16,2.13c0,1.18,0.97,2.13,2.16,2.13
			C121.81,111.23,122.78,110.28,122.78,109.1z"/>
		<path class="st2" d="M67.72,64.06c0-0.95-0.78-1.72-1.75-1.72c-0.96,0-1.75,0.77-1.75,1.72c0,0.95,0.78,1.72,1.75,1.72
			C66.93,65.78,67.72,65.01,67.72,64.06z"/>
		<path class="st2" d="M25.77,74.49c0-1.37-1.13-2.48-2.52-2.48c-1.39,0-2.52,1.11-2.52,2.48c0,1.37,1.13,2.48,2.52,2.48
			C24.65,76.97,25.77,75.86,25.77,74.49z"/>
		<path class="st2" d="M5.54,21.49c0-0.58-0.47-1.04-1.06-1.04c-0.58,0-1.06,0.47-1.06,1.04c0,0.58,0.47,1.04,1.06,1.04
			C5.07,22.54,5.54,22.07,5.54,21.49z"/>
		<line class="st2" x1="158" y1="274.6" x2="61.62" y2="259.06"/>
		<line class="st2" x1="60.32" y1="259.06" x2="16.7" y2="216.87"/>
		<line class="st2" x1="16.7" y1="216.36" x2="104.08" y2="176.27"/>
		<line class="st2" x1="104.69" y1="175.21" x2="96.37" y2="141.31"/>
		<line class="st2" x1="96.37" y1="141.31" x2="11.11" y2="124.77"/>
		<line class="st2" x1="11.11" y1="124.77" x2="120.62" y2="109.1"/>
		<line class="st2" x1="120.09" y1="109.1" x2="65.97" y2="64.06"/>
		<line class="st2" x1="65.97" y1="64.06" x2="23.26" y2="74.49"/>
		<line class="st2" x1="23.26" y1="75.06" x2="4.48" y2="21.49"/>
		<path class="st2" d="M4.48,21.05"/>
		<path class="st2" d="M158.48,274.6"/>
	</g>
	<g class="st3">
		<path class="st2" d="M76.65,207.6c0-1.05-0.86-1.9-1.92-1.9s-1.92,0.85-1.92,1.9c0,1.05,0.86,1.9,1.92,1.9
			S76.65,208.65,76.65,207.6z"/>
		<path class="st2" d="M13.7,164.81c0-0.48-0.4-0.87-0.89-0.87c-0.49,0-0.89,0.39-0.89,0.87c0,0.48,0.4,0.87,0.89,0.87
			C13.3,165.68,13.7,165.29,13.7,164.81z"/>
		<path class="st2" d="M57.89,92.75c0-1.24-1.02-2.24-2.27-2.24c-1.25,0-2.27,1-2.27,2.24c0,1.24,1.02,2.24,2.27,2.24
			C56.87,94.99,57.89,93.99,57.89,92.75z"/>
		<path class="st2" d="M139.79,73.49c0-1.68-1.39-3.05-3.1-3.05c-1.71,0-3.1,1.36-3.1,3.05c0,1.68,1.39,3.05,3.1,3.05
			C138.4,76.54,139.79,75.17,139.79,73.49z"/>
		<path class="st2" d="M49.27,278.47c0-1.66-1.37-3.01-3.05-3.01c-1.69,0-3.05,1.35-3.05,3.01c0,1.66,1.37,3.01,3.05,3.01
			C47.9,281.48,49.27,280.13,49.27,278.47z"/>
		<path class="st2" d="M131.58,254.27c0-1.22-1-2.2-2.23-2.2c-1.23,0-2.23,0.99-2.23,2.2c0,1.22,1,2.2,2.23,2.2
			C130.58,256.47,131.58,255.48,131.58,254.27z"/>
		<path class="st2" d="M161.03,211.76c0-0.69-0.57-1.25-1.27-1.25c-0.7,0-1.27,0.56-1.27,1.25c0,0.69,0.57,1.25,1.27,1.25
			C160.46,213.02,161.03,212.46,161.03,211.76z"/>
		<path class="st2" d="M94.61,28.84c0-0.72-0.59-1.3-1.32-1.3c-0.73,0-1.32,0.58-1.32,1.3c0,0.72,0.59,1.3,1.32,1.3
			C94.02,30.14,94.61,29.55,94.61,28.84z"/>
		<line class="st2" x1="46.22" y1="278.47" x2="12.47" y2="275.1"/>
		<line class="st2" x1="46.22" y1="278.47" x2="129.34" y2="254.27"/>
		<line class="st2" x1="129.34" y1="254.27" x2="159.76" y2="211.76"/>
		<line class="st2" x1="159.76" y1="211.76" x2="74.72" y2="207.6"/>
		<line class="st2" x1="74.72" y1="207.6" x2="12.81" y2="164.81"/>
		<line class="st2" x1="12.81" y1="164.81" x2="55.62" y2="92.75"/>
		<line class="st2" x1="55.62" y1="92.75" x2="136.69" y2="73.49"/>
		<line class="st2" x1="136.69" y1="73.49" x2="93.29" y2="28.84"/>
		<path class="st2" d="M93.29,28.84"/>
	</g>
	<path class="st4" d="M161.48,103.65c1.28,0.03,2.39,0.9,2.7,2.15l16.65,64.78c0.32,0.06,0.28,0.08,1.02,0.13
		c2.88,0.22,9.14,0.25,21.73-0.72c1.56-0.19,2.98,0.91,3.18,2.47c0.19,1.56-0.91,2.98-2.47,3.18c-0.09,0.01-0.18,0.02-0.27,0.02
		c-12.74,0.98-19.14,1-22.6,0.73c-1.73-0.13-2.71-0.31-3.58-0.65c-0.44-0.17-0.87-0.37-1.33-0.83c-0.23-0.23-0.46-0.54-0.62-0.91
		c-0.07-0.15-0.11-0.3-0.16-0.47l0,0l-0.02-0.11l-14.01-54.51l-20.85,97.41c-0.32,1.54-1.83,2.53-3.37,2.21
		c-1.12-0.23-2-1.12-2.22-2.24l-12.79-64.04l-9.08,21.66c-0.44,1.06-1.48,1.75-2.62,1.75H84.95c-1.57,0.02-2.87-1.23-2.89-2.8
		c-0.02-1.57,1.23-2.87,2.8-2.89c0.03,0,0.06,0,0.08,0h23.92l11.93-28.49c0.61-1.45,2.28-2.13,3.73-1.52
		c0.87,0.37,1.5,1.14,1.69,2.06l11.92,59.67l20.5-95.79c0.28-1.34,1.48-2.29,2.85-2.26L161.48,103.65z"/>
</g>
<g id="Layer_1">
	<g>
		<path class="st5" d="M60.03,175.21c0-2.01-1.63-3.63-3.63-3.63c-2.01,0-3.63,1.63-3.63,3.63c0,2.01,1.63,3.63,3.63,3.63
			C58.41,178.84,60.03,177.22,60.03,175.21z"/>
		<path class="st5" d="M132.12,139.82c0-0.54-0.44-0.98-0.98-0.98c-0.54,0-0.98,0.44-0.98,0.98s0.44,0.98,0.98,0.98
			C131.68,140.8,132.12,140.36,132.12,139.82z"/>
		<path class="st5" d="M172.64,253.07c0-2.3-1.87-4.17-4.17-4.17c-2.3,0-4.17,1.87-4.17,4.17c0,2.3,1.87,4.17,4.17,4.17
			C170.78,257.24,172.64,255.38,172.64,253.07z"/>
		<path class="st5" d="M67.09,55.97c0-15-12.16-27.16-27.16-27.16c-15,0-27.16,12.16-27.16,27.16s12.16,27.16,27.16,27.16
			C54.94,83.12,67.09,70.96,67.09,55.97z"/>
		<path class="st6" d="M192.68,69.98c0-17.19-13.92-31.12-31.13-31.12c-17.19,0-31.12,13.93-31.12,31.12
			c0,17.19,13.93,31.12,31.12,31.12C178.76,101.1,192.68,87.17,192.68,69.98z"/>
		<path class="st7" d="M192.68,69.98c0-17.19-13.92-31.12-31.13-31.12c-17.19,0-31.12,13.93-31.12,31.12
			c0,17.19,13.93,31.12,31.12,31.12C178.76,101.1,192.68,87.17,192.68,69.98z"/>
		<text transform="matrix(1 0 0 1 139.4854 57.8652)"><tspan x="0" y="0" class="st8 st9">Quick and </tspan><tspan x="3.09" y="12" class="st8 st9">easy self </tspan><tspan x="6.86" y="24" class="st8 st9">guided </tspan><tspan x="7.78" y="36" class="st8 st9">exams</tspan></text>
		<path class="st6" d="M95.89,220.87c0-15.57-12.61-28.18-28.19-28.18c-15.57,0-28.18,12.61-28.18,28.18
			c0,15.57,12.62,28.18,28.18,28.18C83.27,249.06,95.89,236.44,95.89,220.87z"/>
		<path class="st7" d="M95.89,220.87c0-15.57-12.61-28.18-28.19-28.18c-15.57,0-28.18,12.61-28.18,28.18
			c0,15.57,12.62,28.18,28.18,28.18C83.27,249.06,95.89,236.44,95.89,220.87z"/>
		<text transform="matrix(1 0 0 1 48.3599 209.7979)"><tspan x="0" y="0" class="st8 st10">Improved </tspan><tspan x="6.85" y="10.8" class="st8 st10">future </tspan><tspan x="4.5" y="21.6" class="st8 st10">disease </tspan><tspan x="3.16" y="32.4" class="st8 st10">analysis</tspan></text>
		<path class="st5" d="M215.45,214.71c0-0.72-0.58-1.3-1.3-1.3c-0.72,0-1.3,0.58-1.3,1.3c0,0.72,0.58,1.3,1.3,1.3
			C214.87,216.01,215.45,215.43,215.45,214.71z"/>
		<path class="st5" d="M102.61,229.55c0-0.63-0.51-1.14-1.14-1.14c-0.63,0-1.14,0.51-1.14,1.14c0,0.63,0.51,1.14,1.14,1.14
			C102.1,230.69,102.61,230.18,102.61,229.55z"/>
		<path class="st5" d="M65.59,23.84c0-0.63-0.51-1.14-1.14-1.14s-1.14,0.51-1.14,1.14c0,0.63,0.51,1.14,1.14,1.14
			S65.59,24.47,65.59,23.84z"/>
		<path class="st5" d="M120.04,264.24c0-0.63-0.51-1.14-1.14-1.14c-0.63,0-1.14,0.51-1.14,1.14c0,0.63,0.51,1.14,1.14,1.14
			C119.53,265.39,120.04,264.87,120.04,264.24z"/>
		<path class="st5" d="M90.23,98.18c0-0.91-0.73-1.64-1.64-1.64c-0.91,0-1.64,0.73-1.64,1.64c0,0.91,0.73,1.64,1.64,1.64
			C89.49,99.82,90.23,99.08,90.23,98.18z"/>
		<path class="st5" d="M232.08,272.95c0-0.91-0.73-1.64-1.64-1.64c-0.91,0-1.64,0.73-1.64,1.64c0,0.91,0.73,1.64,1.64,1.64
			C231.34,274.6,232.08,273.86,232.08,272.95z"/>
		<path class="st5" d="M30.25,195.82c0-0.91-0.73-1.64-1.64-1.64c-0.91,0-1.64,0.73-1.64,1.64c0,0.91,0.73,1.64,1.64,1.64
			C29.52,197.46,30.25,196.72,30.25,195.82z"/>
		<path class="st5" d="M175.74,180.7c0-15.46-12.52-27.98-27.98-27.98c-15.46,0-27.99,12.53-27.99,27.98
			c0,15.45,12.53,27.98,27.99,27.98C163.22,208.68,175.74,196.15,175.74,180.7z"/>
		<path class="st7" d="M175.74,185.41c0-18.06-12.52-32.69-27.98-32.69c-15.46,0-27.99,14.63-27.99,32.69
			c0,18.05,12.53,32.69,27.99,32.69C163.22,218.11,175.74,203.46,175.74,185.41z"/>
		<text transform="matrix(1 0 0 1 130.0029 168.877)"><tspan x="0" y="0" class="st8 st11">Real time </tspan><tspan x="5.62" y="10.2" class="st8 st11">health </tspan><tspan x="4.14" y="20.4" class="st8 st11">related </tspan><tspan x="0.48" y="30.6" class="st8 st11">feedback </tspan></text>
		<path class="st5" d="M271.74,269.85c0-1.26-1.02-2.28-2.28-2.28c-1.26,0-2.28,1.02-2.28,2.28s1.02,2.28,2.28,2.28
			C270.72,272.13,271.74,271.11,271.74,269.85z"/>
		<path class="st5" d="M115.88,13.09c0-1.74-1.41-3.15-3.15-3.15c-1.74,0-3.15,1.41-3.15,3.15c0,1.74,1.41,3.15,3.15,3.15
			C114.47,16.24,115.88,14.83,115.88,13.09z"/>
		<path class="st5" d="M24.84,240.52c0-1.79-1.45-3.23-3.23-3.23c-1.78,0-3.23,1.45-3.23,3.23c0,1.79,1.45,3.23,3.23,3.23
			C23.39,243.75,24.84,242.31,24.84,240.52z"/>
		<path class="st5" d="M86.1,281.12c0-1.46-1.19-2.65-2.65-2.65c-1.46,0-2.65,1.19-2.65,2.65c0,1.46,1.18,2.65,2.65,2.65
			C84.92,283.76,86.1,282.58,86.1,281.12z"/>
		<line class="st5" x1="23.84" y1="241.89" x2="81.25" y2="279.66"/>
		<line class="st5" x1="85.55" y1="280.22" x2="118.28" y2="264.52"/>
		<line class="st5" x1="119.69" y1="264.24" x2="164.9" y2="253.87"/>
		<line class="st5" x1="171.61" y1="254.47" x2="229.55" y2="272.95"/>
		<line class="st5" x1="231.47" y1="272.95" x2="268.21" y2="269.85"/>
		<line class="st5" x1="230.43" y1="272.13" x2="214.16" y2="214.71"/>
		<line class="st5" x1="170.4" y1="250.89" x2="214.16" y2="214.71"/>
		<line class="st5" x1="118.9" y1="263.83" x2="101.92" y2="229.55"/>
		<line class="st5" x1="94.81" y1="228.56" x2="100.9" y2="229.55"/>
		<line class="st5" x1="23.23" y1="239.49" x2="42.02" y2="232.5"/>
		<line class="st5" x1="22.06" y1="238.5" x2="28.61" y2="196.53"/>
		<line class="st5" x1="29.13" y1="195.37" x2="54.64" y2="175.77"/>
		<line class="st5" x1="59.86" y1="193.8" x2="56.4" y2="175.77"/>
		<line class="st5" x1="58.93" y1="175.77" x2="119.84" y2="182.57"/>
		<line class="st5" x1="171.07" y1="196.19" x2="213.56" y2="214.71"/>
		<line class="st5" x1="136.31" y1="155.17" x2="131.59" y2="140.25"/>
		<line class="st5" x1="89.36" y1="98.91" x2="131.14" y2="139.82"/>
		<line class="st5" x1="53.7" y1="67.06" x2="88.01" y2="97.74"/>
		<line class="st5" x1="52.44" y1="35.42" x2="64.03" y2="23.84"/>
		<line class="st5" x1="64.84" y1="23.84" x2="110.65" y2="13.81"/>
		<line class="st5" x1="113.97" y1="15.24" x2="141.95" y2="45.81"/>
		<line class="st5" x1="133.18" y1="82.74" x2="89.36" y2="97.74"/>
		<line class="st5" x1="131.14" y1="139.82" x2="148.34" y2="98.16"/>
		<line class="st5" x1="64.45" y1="23.84" x2="88.58" y2="98.18"/>
		<line class="st5" x1="64.45" y1="23.84" x2="133.39" y2="56.73"/>
		<line class="st5" x1="56.4" y1="175.21" x2="88.58" y2="97.94"/>
		<line class="st5" x1="21.6" y1="240.52" x2="-19.8" y2="124.29"/>
		<line class="st5" x1="28.61" y1="195.82" x2="-19.8" y2="124.29"/>
		<line class="st5" x1="56.4" y1="175.21" x2="-19.8" y2="124.29"/>
		<line class="st5" x1="88.58" y1="98.18" x2="-19.8" y2="124.29"/>
		<line class="st5" x1="21.09" y1="70.05" x2="-19.87" y2="124.44"/>
		<line class="st5" x1="73.44" y1="248.47" x2="83.46" y2="280.22"/>
		<line class="st5" x1="83.46" y1="281.12" x2="101.47" y2="229.55"/>
		<line class="st5" x1="22.06" y1="240.52" x2="118.9" y2="264.24"/>
		<line class="st5" x1="101.47" y1="229.55" x2="166.14" y2="252.38"/>
		<line class="st5" x1="29.13" y1="195.82" x2="43.33" y2="206.72"/>
		<line class="st5" x1="93.82" y1="210.27" x2="124.13" y2="195.69"/>
		<line class="st5" x1="101.47" y1="229.55" x2="129.28" y2="201.71"/>
		<line class="st5" x1="154.53" y1="207.86" x2="167.83" y2="251.82"/>
		<line class="st5" x1="214.16" y1="214.71" x2="269.46" y2="269.27"/>
		<line class="st5" x1="40.92" y1="29.3" x2="54.64" y2="-32.48"/>
		<line class="st5" x1="64.45" y1="23.84" x2="54.64" y2="-32.48"/>
		<line class="st5" x1="112.31" y1="13.09" x2="54.64" y2="-32.48"/>
		<line class="st5" x1="214.16" y1="214.71" x2="315.77" y2="226.64"/>
		<line class="st5" x1="269.46" y1="269.85" x2="315.77" y2="226.64"/>
		<line class="st5" x1="230.43" y1="272.95" x2="291.55" y2="249.06"/>
		<line class="st5" x1="138.75" y1="48.8" x2="54.64" y2="-32.48"/>
		<line class="st5" x1="56.4" y1="175.21" x2="131.59" y2="139.58"/>
		<line class="st5" x1="56.4" y1="175.21" x2="39.97" y2="75.24"/>
		<line class="st5" x1="131.14" y1="140.02" x2="-19.87" y2="124.44"/>
		<line class="st5" x1="118.9" y1="264.24" x2="138.29" y2="207.04"/>
		<line class="st5" x1="56.4" y1="175.21" x2="167.83" y2="251.82"/>
		<line class="st5" x1="20.85" y1="240.52" x2="54.64" y2="175.77"/>
		<path class="st5" d="M-29.56,372.43"/>
		<line class="st5" x1="20.85" y1="240.52" x2="5.2" y2="281.48"/>
		<line class="st5" x1="83.46" y1="281.12" x2="-29.56" y2="372.43"/>
		<line class="st5" x1="52.37" y1="244.52" x2="-29.56" y2="372.43"/>
		<line class="st5" x1="168.47" y1="253.07" x2="-29.56" y2="372.43"/>
		<line class="st5" x1="118.9" y1="264.24" x2="212.86" y2="306.48"/>
		<line class="st5" x1="168.47" y1="253.07" x2="212.86" y2="306.48"/>
		<line class="st5" x1="230.43" y1="272.95" x2="212.86" y2="306.48"/>
		<line class="st5" x1="269.46" y1="269.85" x2="212.86" y2="306.48"/>
		<line class="st5" x1="168.47" y1="253.07" x2="288" y2="223.38"/>
		<path class="st5" d="M56.4,175.21"/>
		<path class="st5" d="M83.46,281.12"/>
		<line class="st5" x1="129.01" y1="159.92" x2="88.58" y2="98.18"/>
		<line class="st5" x1="59.38" y1="54.73" x2="130.8" y2="65.2"/>
		<line class="st5" x1="88.58" y1="98.18" x2="112.31" y2="13.09"/>
		<line class="st5" x1="77.15" y1="194.31" x2="120.63" y2="187.59"/>
		<line class="st5" x1="51.29" y1="69.98" x2="126.7" y2="162.28"/>
		<line class="st5" x1="101.47" y1="229.7" x2="88.58" y2="98.18"/>
		<line class="st5" x1="214.16" y1="214.71" x2="101.46" y2="229.55"/>
		<line class="st5" x1="268.77" y1="269.85" x2="171.61" y2="253.87"/>
		<line class="st5" x1="101.47" y1="229.7" x2="87.79" y2="240.65"/>
		<line class="st5" x1="118.9" y1="264.24" x2="87.79" y2="240.65"/>
		<line class="st5" x1="83.46" y1="281.12" x2="167.83" y2="253.46"/>
		<line class="st5" x1="20.85" y1="240.52" x2="-34.68" y2="243.98"/>
		<line class="st5" x1="28.61" y1="195.82" x2="-34.68" y2="243.98"/>
		<line class="st5" x1="83.46" y1="281.12" x2="-34.68" y2="243.98"/>
		<line class="st5" x1="64.03" y1="23.84" x2="-38.41" y2="15.24"/>
		<line class="st5" x1="112.31" y1="13.09" x2="-38.41" y2="15.24"/>
		<line class="st5" x1="15.44" y1="41.33" x2="-38.41" y2="15.24"/>
		<line class="st5" x1="88.42" y1="98.34" x2="48.38" y2="72.1"/>
		<line class="st5" x1="56.4" y1="175.21" x2="-38.41" y2="15.24"/>
		<line class="st5" x1="120.34" y1="175.87" x2="-19.87" y2="124.44"/>
		<line class="st5" x1="167.58" y1="200.45" x2="268.77" y2="269.85"/>
		<line class="st5" x1="230.43" y1="272.95" x2="163.42" y2="203.89"/>
		<line class="st5" x1="230.43" y1="272.95" x2="252.3" y2="313.51"/>
		<line class="st5" x1="168.47" y1="253.07" x2="252.3" y2="313.51"/>
		<line class="st5" x1="252.3" y1="313.51" x2="269.46" y2="269.85"/>
		<line class="st5" x1="214.51" y1="215.06" x2="252.3" y2="313.51"/>
		<line class="st5" x1="84.2" y1="280.35" x2="133.22" y2="204.61"/>
		<line class="st5" x1="65.04" y1="24.12" x2="131.16" y2="139.79"/>
		<line class="st5" x1="112.86" y1="13.09" x2="131.32" y2="139.82"/>
		<path class="st7" d="M67.09,57.97c0-15-12.16-27.16-27.16-27.16c-15,0-27.16,12.16-27.16,27.16s12.16,27.16,27.16,27.16
			C54.94,85.12,67.09,72.96,67.09,57.97z"/>
		<text transform="matrix(1 0 0 1 35.8711 36.7681)"><tspan x="0" y="0" class="st8 st11">At </tspan><tspan x="-6.57" y="10.2" class="st8 st11">home </tspan><tspan x="-12.95" y="20.4" class="st8 st11">access to </tspan><tspan x="-17.6" y="30.6" class="st8 st11">your health </tspan><tspan x="-10.8" y="40.8" class="st8 st11">insights</tspan></text>
	</g>
</g>
<g id="AI">
</g>
</svg>
